<svg xmlns="http://www.w3.org/2000/svg" width="47" height="47" viewBox="0 0 47 47"><defs><style>.a,.b{fill:#fff;}.a{opacity:0.29;}</style></defs><g transform="translate(-48 -40)"><circle class="a" cx="23.5" cy="23.5" r="23.5" transform="translate(48 40)"/><path class="b" d="M22.646,13.425H11.313l4.4-4.2a1.752,1.752,0,0,0,0-2.394,1.566,1.566,0,0,0-2.288,0L6.1,13.923a1.613,1.613,0,0,0-.477,1.186v.021A1.613,1.613,0,0,0,6.1,16.317l7.314,7.1a1.566,1.566,0,0,0,2.288,0,1.752,1.752,0,0,0,0-2.394l-4.4-4.2H22.641a1.658,1.658,0,0,0,1.621-1.695A1.64,1.64,0,0,0,22.646,13.425Z" transform="translate(56.557 48.38)"/></g></svg>